# xmcd
#
# Track frame offsets: 
#        150
#        18822
#        38192
#        57680
#        82305
#        108772
#        129367
#        150892
#        170455
#        190662
#        211340
#        228362
#
# Disc length: 3293 seconds
#
# Revision: 0
# Processed by: cddbd v1.5.2PL0 Copyright (c) Steve Scherf et al.
# Submitted via: ExactAudioCopy v1.0b3
#
DISCID=910cdb0c
DTITLE=Nocturnal Rites - New World Messiah
DYEAR=2004
DGENRE=Metal
TTITLE0=New World Messia
TTITLE1=Against The World
TTITLE2=Avalon
TTITLE3=Awakening
TTITLE4=Egyptica
TTITLE5=Break Away
TTITLE6=End Of Days
TTITLE7=The Flame Will Never Die
TTITLE8=One Nation
TTITLE9=Nightmare
TTITLE10=Another Storm
TTITLE11=Save Us
EXTD=
EXTT0=
EXTT1=
EXTT2=
EXTT3=
EXTT4=
EXTT5=
EXTT6=
EXTT7=
EXTT8=
EXTT9=
EXTT10=
EXTT11=
PLAYORDER=
